<svg viewBox="0 0 1200 675" xmlns="http://www.w3.org/2000/svg" font-family="Pretendard, Apple SD Gothic Neo, sans-serif">

  <!-- 분전함 -->
  <g>
    <rect x="60" y="60" width="260" height="170" rx="12" fill="#1a1e27" stroke="#98a1b3" stroke-width="3"/>
    <text x="90" y="92" fill="#e9ecf2" font-size="22" font-weight="700">분전함</text>

    <rect x="85" y="115" width="90" height="55" rx="6" fill="#1a1e27" stroke="#ffb454" stroke-width="2"/>
    <text x="130" y="147" fill="#e9ecf2" font-size="15" text-anchor="middle">DALI PSU</text>

    <rect x="195" y="115" width="105" height="55" rx="6" fill="#1a1e27" stroke="#ffb454" stroke-width="2"/>
    <text x="247" y="147" fill="#e9ecf2" font-size="14" text-anchor="middle">DALI 마스터</text>
  </g>

  <!-- legend: 전원 != 버스 -->
  <g>
    <rect x="780" y="64" width="20" height="14" rx="2" fill="#b48cff"/>
    <text x="808" y="76" fill="#e9ecf2" font-size="16">DALI 버스 (제어)</text>
    <rect x="780" y="90" width="20" height="14" rx="2" fill="#c8824a"/>
    <text x="808" y="102" fill="#e9ecf2" font-size="16">전원 L</text>
    <rect x="930" y="90" width="20" height="14" rx="2" fill="#58b7ff"/>
    <text x="958" y="102" fill="#e9ecf2" font-size="16">전원 N</text>
  </g>

  <!-- bus + power runs -->
  <line x1="320" y1="150" x2="1140" y2="150" stroke="#b48cff" stroke-width="3"/>
  <text x="730" y="140" fill="#b48cff" font-size="18" text-anchor="middle">DALI 버스 2가닥 · 극성 무관</text>

  <line x1="320" y1="195" x2="1140" y2="195" stroke="#c8824a" stroke-width="4"/>
  <text x="730" y="188" fill="#c8824a" font-size="17" text-anchor="middle">L</text>

  <line x1="320" y1="215" x2="1140" y2="215" stroke="#58b7ff" stroke-width="4"/>
  <text x="730" y="232" fill="#58b7ff" font-size="17" text-anchor="middle">N</text>

  <!-- Driver 1 -->
  <g>
    <line x1="390" y1="150" x2="390" y2="250" stroke="#b48cff" stroke-width="3"/>
    <line x1="430" y1="195" x2="430" y2="250" stroke="#c8824a" stroke-width="4"/>
    <line x1="470" y1="215" x2="470" y2="250" stroke="#58b7ff" stroke-width="4"/>
    <rect x="360" y="250" width="140" height="60" rx="10" fill="#1a1e27" stroke="#ffb454" stroke-width="2"/>
    <text x="430" y="286" fill="#e9ecf2" font-size="18" text-anchor="middle">드라이버 1</text>
    <line x1="430" y1="310" x2="430" y2="400" stroke="#98a1b3" stroke-width="3"/>
    <text x="450" y="358" fill="#98a1b3" font-size="15" text-anchor="start">출력</text>
    <rect x="360" y="400" width="140" height="50" rx="8" fill="#1a1e27" stroke="#e9ecf2" stroke-width="2"/>
    <text x="430" y="431" fill="#e9ecf2" font-size="16" text-anchor="middle">등기구</text>
  </g>

  <!-- Driver 2 -->
  <g>
    <line x1="592" y1="150" x2="592" y2="250" stroke="#b48cff" stroke-width="3"/>
    <line x1="632" y1="195" x2="632" y2="250" stroke="#c8824a" stroke-width="4"/>
    <line x1="672" y1="215" x2="672" y2="250" stroke="#58b7ff" stroke-width="4"/>
    <rect x="562" y="250" width="140" height="60" rx="10" fill="#1a1e27" stroke="#ffb454" stroke-width="2"/>
    <text x="632" y="286" fill="#e9ecf2" font-size="18" text-anchor="middle">드라이버 2</text>
    <line x1="632" y1="310" x2="632" y2="400" stroke="#98a1b3" stroke-width="3"/>
    <text x="652" y="358" fill="#98a1b3" font-size="15" text-anchor="start">출력</text>
    <rect x="562" y="400" width="140" height="50" rx="8" fill="#1a1e27" stroke="#e9ecf2" stroke-width="2"/>
    <text x="632" y="431" fill="#e9ecf2" font-size="16" text-anchor="middle">등기구</text>
  </g>

  <!-- Driver 3 -->
  <g>
    <line x1="794" y1="150" x2="794" y2="250" stroke="#b48cff" stroke-width="3"/>
    <line x1="834" y1="195" x2="834" y2="250" stroke="#c8824a" stroke-width="4"/>
    <line x1="874" y1="215" x2="874" y2="250" stroke="#58b7ff" stroke-width="4"/>
    <rect x="764" y="250" width="140" height="60" rx="10" fill="#1a1e27" stroke="#ffb454" stroke-width="2"/>
    <text x="834" y="286" fill="#e9ecf2" font-size="18" text-anchor="middle">드라이버 3</text>
    <line x1="834" y1="310" x2="834" y2="400" stroke="#98a1b3" stroke-width="3"/>
    <text x="854" y="358" fill="#98a1b3" font-size="15" text-anchor="start">출력</text>
    <rect x="764" y="400" width="140" height="50" rx="8" fill="#1a1e27" stroke="#e9ecf2" stroke-width="2"/>
    <text x="834" y="431" fill="#e9ecf2" font-size="16" text-anchor="middle">등기구</text>
  </g>

  <!-- Driver 4 -->
  <g>
    <line x1="996" y1="150" x2="996" y2="250" stroke="#b48cff" stroke-width="3"/>
    <line x1="1036" y1="195" x2="1036" y2="250" stroke="#c8824a" stroke-width="4"/>
    <line x1="1076" y1="215" x2="1076" y2="250" stroke="#58b7ff" stroke-width="4"/>
    <rect x="966" y="250" width="140" height="60" rx="10" fill="#1a1e27" stroke="#ffb454" stroke-width="2"/>
    <text x="1036" y="286" fill="#e9ecf2" font-size="18" text-anchor="middle">드라이버 4</text>
    <line x1="1036" y1="310" x2="1036" y2="400" stroke="#98a1b3" stroke-width="3"/>
    <text x="1056" y="358" fill="#98a1b3" font-size="15" text-anchor="start">출력</text>
    <rect x="966" y="400" width="140" height="50" rx="8" fill="#1a1e27" stroke="#e9ecf2" stroke-width="2"/>
    <text x="1036" y="431" fill="#e9ecf2" font-size="16" text-anchor="middle">등기구</text>
  </g>

  <!-- caption -->
  <text x="600" y="530" fill="#98a1b3" font-size="26" font-weight="500" text-anchor="middle">한 라인 64주소 · 16그룹 · 16씬</text>
</svg>
